%TF.GenerationSoftware,KiCad,Pcbnew,(6.0.0)*%
%TF.CreationDate,2022-07-31T18:01:37+12:00*%
%TF.ProjectId,MOTOR_TERMINAL_BREAKOUT_N20,4d4f544f-525f-4544-9552-4d494e414c5f,0A*%
%TF.SameCoordinates,Original*%
%TF.FileFunction,Legend,Top*%
%TF.FilePolarity,Positive*%
%FSLAX46Y46*%
G04 Gerber Fmt 4.6, Leading zero omitted, Abs format (unit mm)*
G04 Created by KiCad (PCBNEW (6.0.0)) date 2022-07-31 18:01:37*
%MOMM*%
%LPD*%
G01*
G04 APERTURE LIST*
%ADD10C,0.200000*%
%ADD11C,0.150000*%
G04 APERTURE END LIST*
D10*
X221614285Y-144807142D02*
X221828571Y-145407142D01*
X222042857Y-144807142D01*
X222857142Y-145407142D02*
X222342857Y-145407142D01*
X222600000Y-145407142D02*
X222600000Y-144507142D01*
X222514285Y-144635714D01*
X222428571Y-144721428D01*
X222342857Y-144764285D01*
X223242857Y-145321428D02*
X223285714Y-145364285D01*
X223242857Y-145407142D01*
X223200000Y-145364285D01*
X223242857Y-145321428D01*
X223242857Y-145407142D01*
X223842857Y-144507142D02*
X223928571Y-144507142D01*
X224014285Y-144550000D01*
X224057142Y-144592857D01*
X224100000Y-144678571D01*
X224142857Y-144850000D01*
X224142857Y-145064285D01*
X224100000Y-145235714D01*
X224057142Y-145321428D01*
X224014285Y-145364285D01*
X223928571Y-145407142D01*
X223842857Y-145407142D01*
X223757142Y-145364285D01*
X223714285Y-145321428D01*
X223671428Y-145235714D01*
X223628571Y-145064285D01*
X223628571Y-144850000D01*
X223671428Y-144678571D01*
X223714285Y-144592857D01*
X223757142Y-144550000D01*
X223842857Y-144507142D01*
X215885714Y-145407142D02*
X215885714Y-144507142D01*
X216400000Y-145407142D01*
X216400000Y-144507142D01*
X216785714Y-144592857D02*
X216828571Y-144550000D01*
X216914285Y-144507142D01*
X217128571Y-144507142D01*
X217214285Y-144550000D01*
X217257142Y-144592857D01*
X217300000Y-144678571D01*
X217300000Y-144764285D01*
X217257142Y-144892857D01*
X216742857Y-145407142D01*
X217300000Y-145407142D01*
X217857142Y-144507142D02*
X217942857Y-144507142D01*
X218028571Y-144550000D01*
X218071428Y-144592857D01*
X218114285Y-144678571D01*
X218157142Y-144850000D01*
X218157142Y-145064285D01*
X218114285Y-145235714D01*
X218071428Y-145321428D01*
X218028571Y-145364285D01*
X217942857Y-145407142D01*
X217857142Y-145407142D01*
X217771428Y-145364285D01*
X217728571Y-145321428D01*
X217685714Y-145235714D01*
X217642857Y-145064285D01*
X217642857Y-144850000D01*
X217685714Y-144678571D01*
X217728571Y-144592857D01*
X217771428Y-144550000D01*
X217857142Y-144507142D01*
D11*
%TO.C,C1*%
X220107836Y-144390000D02*
X219892164Y-144390000D01*
X220107836Y-145110000D02*
X219892164Y-145110000D01*
%TD*%
M02*
